# xmcd
#
# Track frame offsets:
#	150
#	17006
#	34405
#	51669
#	67140
#	85536
#	100644
#	117514
#	138857
#	157255
#	174569
#	190728
#	211340
#	225348
#	241284
#	256988
#	273651
#
# Disc length: 3865 seconds
#
# Revision: 1
# Processed by: cddbd v1.5.2PL0 Copyright (c) Steve Scherf et al.
# Submitted via: audiograbber 1.83.01
#
DISCID=f00f1711
DTITLE=Various Artist - Nu Rock Traxx 029
DYEAR=2001
DGENRE=Rock
TTITLE0=U2 - Stuck In A Moment
TTITLE1=Puddle Of Mudd - Control
TTITLE2=Lifer - Boring
TTITLE3=Live Ft Tricky - Simple Creed
TTITLE4=Staind - Fade
TTITLE5=Weezer - Island In The Sun
TTITLE6=Nickelback - How You Remind Me
TTITLE7=Limp Bizkit - Boiler
TTITLE8=Saliva - Click Click Boom
TTITLE9=Boyhitscar - Man Without Skin
TTITLE10=Crystal Method - Name Of The Game
TTITLE11=Ramstein - Sonne
TTITLE12=Cold - End Of The World
TTITLE13=Puya - Ride
TTITLE14=Speak No Evil - Downside
TTITLE15=Breaking Point - Coming Of Age
TTITLE16=Verve Pipe - Never Let You Down
EXTD=
EXTT0=
EXTT1=
EXTT2=
EXTT3=
EXTT4=
EXTT5=
EXTT6=
EXTT7=
EXTT8=
EXTT9=
EXTT10=
EXTT11=
EXTT12=
EXTT13=
EXTT14=
EXTT15=
EXTT16=
PLAYORDER=
